<svg xmlns="http://www.w3.org/2000/svg" viewBox="0 0 180 130" role="img" aria-labelledby="title">
  <title id="title">Carrito de compras</title>
  <path d="M73 36 82 8c1-3 4-5 8-5s7 2 8 5l9 28" fill="none" stroke="#ffffff" stroke-width="10" stroke-linecap="round" />
  <path d="M18 40h144c5 0 8 4 7 9l-13 62c-1 6-6 10-12 10H36c-6 0-11-4-12-10L11 49c-1-5 2-9 7-9Z" fill="#ff7900" stroke="#d95a00" stroke-width="5" />
  <path d="M9 37h162v19H9z" fill="#ff8a00" stroke="#d95a00" stroke-width="5" />
  <rect x="69" y="31" width="42" height="27" rx="4" fill="#ff7900" stroke="#d95a00" stroke-width="5" />
  <g fill="#fff7e8">
    <rect x="35" y="66" width="9" height="24" rx="4" />
    <rect x="56" y="66" width="9" height="24" rx="4" />
    <rect x="77" y="66" width="9" height="24" rx="4" />
    <rect x="98" y="66" width="9" height="24" rx="4" />
    <rect x="119" y="66" width="9" height="24" rx="4" />
    <rect x="140" y="66" width="9" height="24" rx="4" />
    <rect x="48" y="96" width="9" height="20" rx="4" />
    <rect x="70" y="96" width="9" height="20" rx="4" />
    <rect x="92" y="96" width="9" height="20" rx="4" />
    <rect x="114" y="96" width="9" height="20" rx="4" />
    <rect x="136" y="96" width="9" height="20" rx="4" />
  </g>
</svg>
